<svg height="512pt" viewBox="0 0 512.00037 512" width="512pt" xmlns="http://www.w3.org/2000/svg" fill="#28a745"><path d="m508.914062 405.386719-30.519531-52.863281c-2.335937-4.042969-5.71875-7.160157-9.710937-9.101563v-32.28125c0-5.519531-4.480469-10-10-10h-57.542969c-5.523437 0-10 4.480469-10 10 0 5.523437 4.476563 10 10 10h47.542969v22.277344c-3.992188 1.945312-7.378906 5.058593-9.714844 9.101562l-30.519531 52.867188c-4.113281 7.125-4.113281 15.636719 0 22.761719s11.480469 11.378906 19.710937 11.378906h20.523438v19.996094h-142.757813c-1.285156-26.429688-23.191406-47.539063-49.9375-47.539063-27.566406 0-49.996093 22.429687-49.996093 49.996094 0 27.570312 22.429687 50 49.996093 50 21.398438 0 39.695313-13.515625 46.816407-32.457031h155.875c5.523437 0 10-4.476563 10-10v-29.996094h20.523437c8.226563 0 15.597656-4.253906 19.710937-11.378906 4.113282-7.125 4.113282-15.636719 0-22.761719zm-252.925781 86.59375c-16.539062 0-29.996093-13.457031-29.996093-30 0-16.539063 13.457031-29.996094 29.996093-29.996094 16.542969 0 30 13.457031 30 29.996094 0 16.542969-13.457031 30-30 30zm235.605469-73.832031c-.363281.628906-1.074219 1.382812-2.390625 1.382812h-61.042969c-1.320312 0-2.03125-.753906-2.394531-1.382812-.363281-.628907-.660156-1.621094 0-2.761719l30.523437-52.863281c.65625-1.144532 1.664063-1.382813 2.390626-1.382813.726562 0 1.730468.242187 2.390624 1.382813l30.523438 52.863281c.660156 1.140625.363281 2.132812 0 2.761719zm0 0"/><path d="m196.695312 321.140625 52.222657 52.226563c1.953125 1.953124 4.511719 2.925781 7.070312 2.925781 2.5625 0 5.121094-.972657 7.074219-2.925781l55.148438-55.152344c3.90625-3.90625 3.90625-10.238282 0-14.144532l-52.222657-52.222656v-31.855468h50c5.519531 0 10-4.476563 10-10v-71.996094c0-5.523438-4.480469-10-10-10h-50v-36h50c5.519531 0 10-4.476563 10-10v-71.996094c0-5.523438-4.480469-10-10-10h-119.996093c-5.523438 0-10 4.476562-10 10v71.996094c0 5.523437 4.476562 10 10 10h50v36h-50c-5.523438 0-10 4.476562-10 10v25.996094h-135.992188c-5.523438 0-10 4.476562-10 10v87.152343h-30c-5.523438 0-10 4.476563-10 10v79.996094c0 5.523437 4.476562 10 10 10h79.996094c5.523437 0 10-4.476563 10-10v-30zm9.296876-301.140625h99.996093v51.996094h-99.996093zm49.996093 332.152344-41.007812-41.007813 41.007812-41.011719 41.011719 41.007813zm-49.996093-204.15625h99.996093v51.996094h-99.996093zm-145.996094 35.996094h125.996094v26c0 5.523437 4.476562 10 10 10h50v31.855468l-49.296876 49.292969h-96.699218v-29.996094c0-5.523437-4.476563-10-10-10h-30zm20 157.148437h-59.996094v-59.996094h59.996094zm0 0"/><path d="m356.136719 321.136719c2.640625 0 5.207031-1.058594 7.078125-2.917969 1.859375-1.871094 2.929687-4.441406 2.929687-7.070312 0-2.640626-1.070312-5.21875-2.929687-7.082032-1.871094-1.859375-4.4375-2.929687-7.078125-2.929687-2.632813 0-5.210938 1.070312-7.070313 2.929687-1.859375 1.863282-2.929687 4.441406-2.929687 7.082032 0 2.628906 1.070312 5.199218 2.929687 7.070312 1.859375 1.859375 4.441406 2.917969 7.070313 2.917969zm0 0"/></svg>
