<svg height="512pt" viewBox="-40 0 512 512" width="512pt" xmlns="http://www.w3.org/2000/svg" fill="#CCB7A6"><path d="m402 0h-280c-16.542969 0-30 13.457031-30 30v26h-62c-16.542969 0-30 13.457031-30 30v338.589844c.0078125.007812.015625.015625.0234375.019531.0039063 2.59375.9960935 5.144531 2.9062505 7.050781l77.40625 77.410156c1.914062 1.914063 4.472656 2.929688 7.074218 2.929688h.011719 222.578125c16.542969 0 30-13.457031 30-30v-26h62c16.542969 0 30-13.457031 30-30v-125c0-5.523438-4.476562-10-10-10s-10 4.476562-10 10v125c0 5.515625-4.484375 10-10 10h-62v-57.863281h29.539062c5.523438 0 10-4.480469 10-10 0-5.523438-4.476562-10-10-10h-29.539062v-35.992188h29.539062c5.523438 0 10-4.476562 10-10 0-5.523437-4.476562-10-10-10h-29.539062v-36.019531h29.539062c5.523438 0 10-4.476562 10-10s-4.476562-10-10-10h-29.539062v-35.988281h29.539062c5.523438 0 10-4.480469 10-10 0-5.523438-4.476562-10-10-10h-29.539062v-36.023438h29.539062c5.523438 0 10-4.476562 10-10 0-5.519531-4.476562-10-10-10h-29.539062v-48.113281c0-3.507812-.609375-6.871094-1.71875-10h73.71875v135c0 5.523438 4.476562 10 10 10s10-4.476562 10-10v-181c0-16.542969-13.457031-30-30-30zm-324.589844 477.859375-43.269531-43.269531h29.203125c7.753906 0 14.066406 6.3125 14.066406 14.066406zm242.589844 4.140625c0 5.515625-4.484375 10-10 10h-212.589844v-43.34375c0-18.785156-15.28125-34.066406-34.066406-34.066406h-43.34375v-282.589844h300v12.105469.011719.007812 56 .011719.007812 55.972657.011718.007813 56 .011719.007812zm0-396v26h-300v-26c0-5.515625 4.484375-10 10-10h280c5.515625 0 10 4.484375 10 10zm-10-30h-198v-26c0-5.515625 4.484375-10 10-10h280c5.515625 0 10 4.484375 10 10v26zm0 0"/><path d="m277.589844 358.019531h-216c-5.523438 0-10 4.476563-10 10 0 5.523438 4.476562 10 10 10h216c5.523437 0 10-4.476562 10-10 0-5.523437-4.476563-10-10-10zm0 0"/><path d="m277.589844 414.011719h-100.589844c-5.523438 0-10 4.476562-10 10 0 5.519531 4.476562 10 10 10h100.589844c5.523437 0 10-4.480469 10-10 0-5.523438-4.476563-10-10-10zm0 0"/><path d="m61.589844 322h153.042968c5.523438 0 10-4.476562 10-10s-4.476562-10-10-10h-153.042968c-5.523438 0-10 4.476562-10 10s4.476562 10 10 10zm0 0"/><path d="m277.589844 246.011719h-216c-5.523438 0-10 4.476562-10 10 0 5.519531 4.476562 10 10 10h216c5.523437 0 10-4.480469 10-10 0-5.523438-4.476563-10-10-10zm0 0"/><path d="m61.589844 209.988281h75.519531c5.523437 0 10-4.476562 10-10 0-5.519531-4.476563-10-10-10h-75.519531c-5.523438 0-10 4.480469-10 10 0 5.523438 4.476562 10 10 10zm0 0"/><path d="m277.589844 189.988281h-88.832032c-5.523437 0-10 4.480469-10 10 0 5.523438 4.476563 10 10 10h88.832032c5.523437 0 10-4.476562 10-10 0-5.519531-4.476563-10-10-10zm0 0"/><path d="m277.589844 302h-16.390625c-5.523438 0-10 4.476562-10 10s4.476562 10 10 10h16.390625c5.523437 0 10-4.476562 10-10s-4.476563-10-10-10zm0 0"/><path d="m422 246c-2.628906 0-5.210938 1.070312-7.070312 2.929688-1.859376 1.859374-2.929688 4.441406-2.929688 7.070312s1.070312 5.210938 2.929688 7.070312c1.859374 1.859376 4.441406 2.929688 7.070312 2.929688s5.210938-1.070312 7.070312-2.929688c1.859376-1.859374 2.929688-4.441406 2.929688-7.070312s-1.070312-5.210938-2.929688-7.070312c-1.859374-1.859376-4.441406-2.929688-7.070312-2.929688zm0 0"/></svg>
